# xmcd CD database file
#
# Track frame offsets:
#	150
#	14635
#	32061
#	49861
#	75186
#	95064
#	115788
#	126218
#	141117
#	167166
#	184318
#	202666
#	204951
#	216311
#	227358
#
# Disc length: 3173 seconds
#
# Revision: 0
# Processed by: cddbd v1.5.2PL0 Copyright (c) Steve Scherf et al.
# Submitted via: CDex 1.51
#
DISCID=c70c630f
DTITLE=Lionel Loueke - The Journey
DYEAR=2018
DGENRE=Jazz
TTITLE0=Bouriyan
TTITLE1=Molika
TTITLE2=Bawo
TTITLE3=Vi Gnin
TTITLE4=Mandé
TTITLE5=Kába
TTITLE6=Dark Lightning
TTITLE7=Vivi
TTITLE8=Hope
TTITLE9=Gbê
TTITLE10=Gbêdetemin
TTITLE11=Guira
TTITLE12=Okagbé
TTITLE13=Reflections On Vi Gnin
TTITLE14=The Healing
EXTD=YEAR: 2018
EXTT0=
EXTT1=
EXTT2=
EXTT3=
EXTT4=
EXTT5=
EXTT6=
EXTT7=
EXTT8=
EXTT9=
EXTT10=
EXTT11=
EXTT12=
EXTT13=
EXTT14=
PLAYORDER=
